<svg width="180" height="30" viewBox="0 0 180 30" fill="none" xmlns="http://www.w3.org/2000/svg">
<path d="M36.4509 5.86391V24.1189H40.2278V16.6008H47.5595V24.1189H51.3364V5.86391H47.5595V13.522H40.2278V5.86391H36.4509Z" fill="#174A43"/>
<path fill-rule="evenodd" clip-rule="evenodd" d="M60.9637 15.8567L57.1871 16.3955C54.5483 16.7719 53.1906 18.1045 53.1906 20.1571C53.1906 22.1073 54.522 24.1319 57.904 24.1319C58.4568 24.1319 59.012 24.134 59.5757 24.1361C61.1264 24.142 62.7408 24.1481 64.5431 24.1114V15.3948C64.5431 12.5207 62.4449 11.1356 59.4331 11.1356C58.0262 11.1356 56.2982 11.3409 54.3725 11.7769V14.4711C56.15 14.0094 57.409 13.8297 58.7174 13.8297C60.2232 13.8297 60.9637 14.3685 60.9637 15.4718V15.8567ZM58.5693 18.4227L60.9638 18.1025V21.7228C60.1067 21.733 59.7305 21.7329 59.1728 21.7327L58.9148 21.7326C57.4584 21.7326 56.8166 20.9374 56.8166 20.1162C56.8166 19.2438 57.2807 18.5951 58.5692 18.4227H58.5693Z" fill="#174A43"/>
<path d="M82.07 16.2417C82.07 14.5995 81.4529 13.8297 80.1693 13.8297C79.4289 13.8297 78.6636 14.0607 77.8735 14.3173C77.9476 14.7279 77.9971 15.2154 77.9971 15.7285V24.1189H74.4175V16.1134C74.4175 14.5738 73.825 13.8297 72.6156 13.8297C72.1037 13.8297 71.5919 13.891 71.0639 13.9542L71.0637 13.9543C70.8277 13.9825 70.5883 14.0112 70.3443 14.035V24.1188H66.765V11.7769C68.9619 11.4434 71.0602 11.1356 73.3313 11.1356C74.837 11.1356 75.9727 11.4691 76.738 12.1619C78.4167 11.5973 79.9225 11.1356 81.5764 11.1356C84.3413 11.1356 85.6497 12.6237 85.6497 15.7283V24.1188H82.07V16.2417Z" fill="#174A43"/>
<path d="M87.8713 5.86391V24.1188H91.4506V17.8839L95.5485 24.1188H99.6461L94.8325 17.1911L99.6461 11.2894H95.5485L91.4506 16.6008V5.86391H87.8713Z" fill="#174A43"/>
<path fill-rule="evenodd" clip-rule="evenodd" d="M105.176 24.2729C101.523 24.2729 99.0539 22.3741 99.0539 18.397V17.0114C99.0539 13.0344 101.522 11.1357 105.176 11.1357C108.829 11.1357 111.298 12.9575 111.298 17.0114V18.397C111.298 22.3741 108.829 24.2729 105.176 24.2729ZM107.719 16.8317C107.719 14.8048 106.879 13.8297 105.176 13.8297C103.448 13.8297 102.633 14.8047 102.633 16.8317V18.5509C102.633 20.6037 103.448 21.5785 105.176 21.5785C106.879 21.5785 107.719 20.6037 107.719 18.5509V16.8317Z" fill="#174A43"/>
<path d="M120.753 14.4713V11.6487C120.135 11.2894 119.296 11.1612 118.284 11.1612C116.778 11.1612 114.951 11.4434 113.125 11.7769V24.1188H116.704V14.266C117.395 14.112 118.012 14.035 118.605 14.035C119.419 14.035 120.135 14.1889 120.753 14.4713Z" fill="#174A43"/>
<path d="M168.182 6.11769V24.2728H171.733V18.0718L175.799 24.2728H179.865L175.089 17.3829L179.865 11.5136H175.799L171.733 16.7958V6.11769H168.182Z" fill="#174A43"/>
<path fill-rule="evenodd" clip-rule="evenodd" d="M132.596 24.2729H124.973V6.28004H132.177C135.878 6.28004 138.024 7.7709 138.024 10.9581C138.024 12.8089 137.062 14.0685 135.779 14.8139C137.827 15.4821 139.011 16.973 139.011 19.3635C139.011 22.6792 136.643 24.2729 132.596 24.2729ZM128.748 16.1761V21.2913H132.399C134.2 21.2913 135.236 20.4173 135.236 18.7206C135.236 17.0243 134.225 16.1761 132.424 16.1761H128.748ZM128.748 9.23612V13.5802H131.881C133.386 13.5802 134.249 12.8861 134.249 11.4209C134.249 9.95577 133.435 9.23612 131.881 9.23612H128.748Z" fill="#174A43"/>
<path fill-rule="evenodd" clip-rule="evenodd" d="M144.825 16.5702L148.572 16.0343L148.573 16.0346V15.6519C148.573 14.5545 147.838 14.0187 146.344 14.0187C145.046 14.0187 143.796 14.1973 142.033 14.6567V11.9771C143.943 11.5434 145.658 11.3392 147.054 11.3392C150.042 11.3392 152.124 12.7169 152.124 15.5751V24.2439C150.336 24.2804 148.734 24.2743 147.196 24.2685H147.194L147.192 24.2685H147.191L147.189 24.2685H147.188C146.631 24.2664 146.083 24.2643 145.537 24.2643C142.181 24.2643 140.86 22.2508 140.86 20.3112C140.86 18.2698 142.207 16.9445 144.825 16.5702ZM148.572 18.2676L146.197 18.5862C144.918 18.7575 144.458 19.4028 144.458 20.2703C144.458 21.0869 145.095 21.8779 146.54 21.8779C146.631 21.8779 146.716 21.878 146.798 21.878C147.35 21.8782 147.723 21.8783 148.572 21.8682V18.2676Z" fill="#174A43"/>
<path d="M160.154 13.9655C161.486 13.9655 162.152 14.6595 162.152 16.1249V24.2729H165.729V15.8677C165.729 12.7575 164.15 11.2666 160.893 11.2666C158.525 11.2666 156.33 11.575 154.134 11.9091V24.2728H157.711V14.1968C157.855 14.1787 157.997 14.1597 158.14 14.1409L158.141 14.1407C158.806 14.0525 159.463 13.9654 160.154 13.9654L160.154 13.9655Z" fill="#174A43"/>
<path d="M9.80305 29.0914C17.532 31.924 26.0779 27.9113 28.891 20.1288C30.6739 15.1963 29.7261 9.93328 26.825 6.01892L25.5932 9.42692C27.085 12.332 27.4123 15.8321 26.2138 19.1476C23.9389 25.4413 17.0278 28.6864 10.7775 26.3957C10.408 26.2602 10.0491 26.1085 9.7013 25.9416L13.1332 16.4472H15.6138L13.4672 22.3858L18.4238 22.3984L25.0615 4.03509C23.6401 2.69782 21.9335 1.62066 19.9902 0.908441C12.2613 -1.92416 3.71527 2.08853 0.902183 9.87105C-0.88074 14.8036 0.0671276 20.0666 2.96818 23.9809L4.20004 20.5729C2.7082 17.6679 2.38094 14.1677 3.57938 10.8522C5.85431 4.55854 12.7654 1.31349 19.0157 3.6042C19.3852 3.73961 19.7441 3.89134 20.0919 4.05827L16.6507 13.5785H14.1701L16.326 7.61406L11.3694 7.60145L4.7317 25.9648C6.1531 27.302 7.85974 28.3792 9.80305 29.0914Z" fill="#17A755"/>
</svg>
