<svg width="512" height="512" viewBox="0 0 512 512" fill="none" xmlns="http://www.w3.org/2000/svg">
<rect width="512" height="512" fill="white"/>
<path d="M191.034 434.493C289.613 470.373 398.613 419.545 434.493 320.966C457.233 258.487 445.144 191.822 408.142 142.24L392.43 185.408C411.458 222.206 415.632 266.541 400.346 308.538C371.331 388.258 283.183 429.362 203.462 400.347C198.75 398.631 194.172 396.71 189.736 394.595L233.508 274.332H265.147L237.768 349.555L300.988 349.714L385.649 117.111C367.52 100.173 345.752 86.5284 320.966 77.507C222.387 41.6272 113.387 92.4549 77.507 191.034C54.7665 253.513 66.8562 320.178 103.858 369.76L119.57 326.592C100.542 289.794 96.368 245.459 111.653 203.462C140.669 123.742 228.817 82.6376 308.538 111.653C313.25 113.369 317.828 115.291 322.264 117.405L278.373 237.995H246.734L274.232 162.445L211.012 162.286L126.351 394.889C144.48 411.828 166.248 425.472 191.034 434.493Z" fill="#17A755"/>
</svg>
